<svg xmlns="http://www.w3.org/2000/svg" width="201" height="156" viewBox="0 0 201 156" fill="none" className="logo-vhs-expertises"><g clip-path="url(#clip0_514_2)"><path d="M192.89 0H7.72C3.45636 0 0 3.45636 0 7.72V147.51C0 151.774 3.45636 155.23 7.72 155.23H192.89C197.154 155.23 200.61 151.774 200.61 147.51V7.72C200.61 3.45636 197.154 0 192.89 0Z" fill="#292F33"></path><path d="M23.7405 102.2C24.8505 103.96 26.4005 105.36 28.4105 106.38C30.4205 107.4 32.9005 108.14 35.8505 108.59C38.8005 109.04 42.2005 109.27 46.0505 109.27C49.9005 109.27 52.9805 109.04 55.7605 108.59C58.5405 108.14 60.8805 107.36 62.7705 106.25C64.6505 105.14 66.1905 103.73 67.3805 102.01C68.5705 100.29 69.4105 98.1595 69.9005 95.6195C70.3905 93.0795 70.6405 90.1695 70.6405 86.8895V84.7995C70.6405 81.1095 70.3705 77.9295 69.8405 75.2695C69.3105 72.6095 68.2805 70.2695 66.7705 68.2595C65.2505 66.2495 63.1805 64.4095 60.5605 62.7295C57.9405 61.0495 54.5805 59.3895 50.4805 57.7495C47.2805 56.3595 44.7605 55.1495 42.9205 54.1195C41.0805 53.0995 39.6805 52.0495 38.7405 50.9895C37.8005 49.9295 37.1405 48.7195 36.7705 47.3595C36.4005 46.0095 36.2205 44.4695 36.2205 42.7495V40.9095C36.2205 39.2695 36.3405 37.8595 36.5905 36.6695C36.8405 35.4795 37.3105 34.5195 38.0005 33.7795C38.7005 33.0395 39.6205 32.5095 40.7705 32.1795C41.9205 31.8495 43.3105 31.6895 44.9505 31.6895C46.5905 31.6895 48.1205 31.8495 49.3105 32.1795C50.5005 32.5095 51.4405 33.0195 52.1405 33.7195C52.8405 34.4195 53.3505 35.3795 53.6805 36.6095C54.0105 37.8395 54.1705 39.3595 54.1705 41.1595V47.7995L68.5605 47.4295V41.4095C68.5605 38.1295 68.3305 35.2595 67.8805 32.7995C67.4305 30.3395 66.7105 28.2495 65.7305 26.5295C64.7505 24.8095 63.3705 23.3995 61.6105 22.2895C59.8505 21.1795 57.5905 20.4095 54.8505 19.9495C52.1005 19.4995 48.8105 19.2695 44.9505 19.2695C40.5205 19.2695 36.8105 19.6795 33.8205 20.4995C30.8305 21.3195 28.4105 22.5895 26.5605 24.3095C24.7205 26.0295 23.3605 28.3295 22.5005 31.1995C21.6405 34.0695 21.2105 37.5495 21.2105 41.6495V43.3695C21.2105 47.0595 21.5205 50.2395 22.1305 52.8995C22.7505 55.5595 23.7705 57.8395 25.2005 59.7195C26.6305 61.6095 28.6405 63.3295 31.2205 64.8795C33.8005 66.4395 37.0605 68.0795 41.0005 69.7995C44.2805 71.1095 46.9205 72.2795 48.9305 73.2995C50.9405 74.3295 52.4505 75.4295 53.4805 76.6195C54.5005 77.8095 55.1805 79.0795 55.5105 80.4295C55.8405 81.7795 56.0005 83.4795 56.0005 85.5295V87.3695C56.0005 89.0895 55.8205 90.5695 55.4505 91.7995C55.0805 93.0295 54.5305 93.9695 53.7905 94.6295C53.0505 95.2895 52.0305 95.7795 50.7205 96.1095C49.4105 96.4395 47.8105 96.5995 45.9305 96.5995C43.8805 96.5995 42.1805 96.4395 40.8305 96.1095C39.4805 95.7795 38.3905 95.2895 37.5705 94.6295C36.7505 93.9695 36.1805 93.0095 35.8505 91.7395C35.5205 90.4695 35.3605 88.9295 35.3605 87.1295V79.9995L20.7305 80.6195V86.8895C20.7305 90.2495 20.9505 93.1995 21.4105 95.7395C21.8605 98.2795 22.6405 100.43 23.7505 102.19L23.7405 102.2Z" fill="#E5E2D6"></path><path d="M78.1509 34.1489H90.2009V97.7189C90.2009 99.6089 90.1809 101.369 90.1409 103.009C90.1009 104.649 90.0809 106.289 90.0809 107.929H105.201C105.121 106.289 105.081 104.649 105.081 103.009V34.1489H118.971C120.281 34.1489 121.631 34.1089 123.031 34.0289V20.6289H71.8809V34.0289C73.0309 34.1089 74.1309 34.1489 75.2009 34.1489H78.1509Z" fill="#E5E2D6"></path><path d="M173.801 26.4591C171.751 24.3691 169.041 22.8691 165.681 21.9691C162.321 21.0691 158.101 20.6191 153.021 20.6191H128.551C128.551 22.9991 128.571 25.4791 128.611 28.0591C128.651 30.6391 128.671 33.4491 128.671 36.4791V90.6991C128.671 94.1391 128.651 97.2391 128.611 99.9791C128.571 102.729 128.551 105.369 128.551 107.909H153.021C156.951 107.909 160.441 107.649 163.471 107.109C166.501 106.579 169.021 105.629 171.031 104.279C173.041 102.929 174.661 101.229 175.891 99.1791C177.121 97.1291 178.041 94.5891 178.661 91.5591C179.271 88.5291 179.581 84.9191 179.581 80.7391V47.4191C179.581 42.3391 179.131 38.0991 178.231 34.6891C177.331 31.2891 175.851 28.5391 173.801 26.4491V26.4591ZM164.331 80.8691C164.331 83.6591 164.151 85.9291 163.781 87.6891C163.411 89.4491 162.801 90.8491 161.931 91.8691C161.071 92.8991 159.881 93.6291 158.361 94.0791C156.841 94.5291 155.061 94.7591 153.011 94.7591H143.171V33.7791H153.011C155.141 33.7791 156.921 33.9891 158.361 34.3891C159.791 34.7991 160.941 35.5391 161.801 36.5991C162.661 37.6691 163.291 39.0791 163.701 40.8391C164.111 42.5991 164.321 44.8791 164.321 47.6591V80.8591L164.331 80.8691Z" fill="#E5E2D6"></path><path d="M39.3709 130.65C38.9809 129.67 38.5809 128.67 38.1709 127.62C37.7609 126.58 37.3509 125.55 36.9509 124.55C36.5509 123.54 36.1709 122.62 35.8309 121.76C35.4809 120.91 35.2009 120.19 34.9809 119.6H27.1909C26.9709 120.19 26.6809 120.91 26.3309 121.76C25.9809 122.61 25.6009 123.54 25.2009 124.55C24.8009 125.56 24.3809 126.58 23.9709 127.62C23.5509 128.66 23.1409 129.67 22.7509 130.65C22.3509 131.63 21.9909 132.51 21.6609 133.3C21.3309 134.09 21.0709 134.74 20.8809 135.24H26.0809L26.8509 133.06H35.0909L35.8709 135.24H41.2609C41.0509 134.74 40.7909 134.1 40.4609 133.3C40.1309 132.51 39.7709 131.62 39.3809 130.65H39.3709ZM28.2209 129.17L28.3509 128.8C28.7309 127.7 29.1009 126.61 29.4609 125.52C29.6409 124.97 29.8209 124.43 30.0009 123.91H31.8609C32.0609 124.49 32.2709 125.09 32.4909 125.72C32.8909 126.83 33.2709 127.96 33.6609 129.09L33.6909 129.18H28.2209V129.17Z" fill="#E5E2D6"></path><path d="M54.9008 130.88H47.4608V120.86C47.4608 120.43 47.4608 120.02 47.4808 119.6H42.5508C42.5608 120 42.5708 120.41 42.5708 120.85V134.25C42.5708 134.6 42.5708 134.93 42.5508 135.24H58.2008V130.86C57.7608 130.86 57.2508 130.86 56.6808 130.87C56.1108 130.87 55.5108 130.87 54.9008 130.87V130.88Z" fill="#E5E2D6"></path><path d="M77.17 120.899C76.6 120.449 75.85 120.129 74.91 119.919C73.97 119.709 72.8 119.609 71.39 119.609H60.25C60.26 120.119 60.27 120.689 60.27 121.299V133.739C60.27 134.279 60.27 134.779 60.25 135.249H65.18C65.17 134.769 65.16 134.269 65.16 133.749V131.459H71.39C72.8 131.459 73.97 131.349 74.91 131.139C75.85 130.929 76.6 130.589 77.17 130.129C77.74 129.669 78.13 129.059 78.36 128.309C78.59 127.559 78.7 126.639 78.7 125.529V125.459C78.7 124.379 78.59 123.449 78.36 122.699C78.13 121.939 77.74 121.339 77.17 120.889V120.899ZM73.75 125.509C73.75 125.979 73.67 126.349 73.5 126.609C73.33 126.869 73.05 127.069 72.66 127.189C72.27 127.319 71.72 127.379 71.02 127.379H65.16V123.659H71.02C71.72 123.659 72.27 123.709 72.66 123.829C73.05 123.939 73.33 124.129 73.5 124.389C73.67 124.649 73.75 125.009 73.75 125.469V125.509Z" fill="#E5E2D6"></path><path d="M99.2409 122.299V120.859C99.2409 120.459 99.2409 120.039 99.2609 119.609H94.3309C94.3409 120.019 94.3509 120.439 94.3509 120.869V125.119H85.5409V120.859C85.5409 120.459 85.5409 120.039 85.5609 119.609H80.6309C80.6409 120.019 80.6509 120.439 80.6509 120.869V134.239C80.6509 134.589 80.6509 134.919 80.6309 135.239H85.5609C85.5609 134.889 85.5609 134.539 85.5509 134.199C85.5509 133.859 85.5409 133.499 85.5409 133.109V129.289H94.3509V134.229C94.3509 134.579 94.3509 134.909 94.3309 135.229H99.2609C99.2609 134.879 99.2609 134.529 99.2509 134.189C99.2509 133.849 99.2409 133.489 99.2409 133.099V122.279V122.299Z" fill="#E5E2D6"></path><path d="M118.851 120.989C118.141 120.399 117.151 119.969 115.891 119.699C114.631 119.439 113.031 119.299 111.091 119.299C109.151 119.299 107.531 119.429 106.281 119.699C105.021 119.959 104.041 120.389 103.321 120.989C102.601 121.589 102.101 122.379 101.811 123.379C101.521 124.379 101.381 125.609 101.381 127.079V127.779C101.381 129.249 101.521 130.479 101.811 131.469C102.101 132.459 102.601 133.259 103.321 133.859C104.041 134.459 105.031 134.899 106.281 135.159C107.541 135.419 109.141 135.559 111.091 135.559C113.041 135.559 114.631 135.429 115.891 135.159C117.151 134.899 118.141 134.459 118.851 133.859C119.561 133.259 120.071 132.459 120.361 131.469C120.651 130.479 120.801 129.249 120.801 127.779V127.079C120.801 125.609 120.651 124.379 120.361 123.379C120.071 122.379 119.561 121.589 118.851 120.989ZM115.751 127.469C115.751 128.249 115.701 128.889 115.581 129.389C115.471 129.889 115.261 130.269 114.941 130.549C114.621 130.819 114.151 131.009 113.531 131.119C112.911 131.229 112.091 131.289 111.081 131.289C110.071 131.289 109.231 131.239 108.611 131.119C107.991 131.009 107.521 130.819 107.201 130.549C106.881 130.279 106.661 129.889 106.551 129.389C106.441 128.889 106.381 128.249 106.381 127.469V127.379C106.381 126.599 106.441 125.969 106.551 125.469C106.661 124.979 106.881 124.589 107.201 124.309C107.521 124.029 107.991 123.839 108.611 123.739C109.231 123.639 110.051 123.589 111.081 123.589C112.111 123.589 112.911 123.639 113.531 123.739C114.151 123.839 114.621 124.029 114.941 124.309C115.261 124.589 115.471 124.969 115.581 125.469C115.691 125.959 115.751 126.599 115.751 127.379V127.469Z" fill="#E5E2D6"></path><path d="M141.511 122.39V120.89C141.511 120.45 141.511 120.02 141.531 119.61H136.881C136.891 120.18 136.901 120.74 136.901 121.3V124.5C136.901 124.75 136.901 125.1 136.911 125.56C136.911 126.01 136.921 126.52 136.931 127.09C136.941 127.66 136.941 128.23 136.951 128.83C136.951 129.42 136.961 129.98 136.971 130.51C136.971 130.68 136.971 130.84 136.971 130.99H136.721C136.671 130.9 136.631 130.81 136.581 130.71C136.321 130.19 136.031 129.63 135.721 129.03C135.411 128.43 135.091 127.81 134.751 127.18C134.411 126.55 134.081 125.91 133.761 125.26L130.571 119.6H122.891C122.901 120.03 122.911 120.46 122.911 120.89V133.75C122.911 134.01 122.911 134.26 122.901 134.5C122.901 134.74 122.901 134.99 122.901 135.24H127.521C127.521 134.65 127.521 134.08 127.521 133.53C127.521 132.98 127.511 132.45 127.511 131.92V130.37C127.511 130.06 127.511 129.61 127.501 129.02C127.501 128.43 127.491 127.75 127.481 127C127.481 126.24 127.461 125.48 127.451 124.72C127.451 124.41 127.441 124.12 127.431 123.84H127.681C127.711 123.9 127.741 123.95 127.771 124.01C128.061 124.56 128.361 125.14 128.671 125.74C128.991 126.34 129.311 126.96 129.651 127.59C129.991 128.22 130.341 128.88 130.711 129.57L133.861 135.25H141.541C141.531 134.74 141.521 134.21 141.521 133.68V122.4L141.511 122.39Z" fill="#E5E2D6"></path><path d="M160.081 126.789C159.541 126.389 158.771 126.069 157.761 125.809C156.751 125.549 155.411 125.369 153.751 125.269C152.521 125.179 151.541 125.099 150.821 125.029C150.101 124.959 149.571 124.879 149.221 124.799C148.881 124.719 148.651 124.609 148.551 124.479C148.451 124.349 148.401 124.199 148.401 124.039C148.401 123.879 148.441 123.739 148.521 123.619C148.601 123.499 148.771 123.409 149.031 123.329C149.291 123.259 149.661 123.199 150.161 123.159C150.661 123.119 151.321 123.109 152.141 123.109C153.031 123.109 153.741 123.129 154.241 123.159C154.751 123.199 155.131 123.259 155.401 123.349C155.661 123.439 155.841 123.549 155.921 123.689C156.001 123.829 156.041 123.999 156.041 124.209V124.579L160.931 124.489V124.449C160.931 123.749 160.881 123.119 160.791 122.569C160.691 122.019 160.491 121.539 160.161 121.129C159.841 120.719 159.361 120.379 158.721 120.109C158.081 119.839 157.221 119.639 156.151 119.499C155.081 119.369 153.741 119.299 152.121 119.299C150.311 119.299 148.841 119.399 147.711 119.609C146.571 119.819 145.701 120.129 145.081 120.549C144.461 120.969 144.041 121.479 143.811 122.079C143.581 122.679 143.471 123.399 143.471 124.239C143.471 125.079 143.571 125.789 143.781 126.389C143.991 126.979 144.361 127.459 144.891 127.829C145.431 128.199 146.191 128.489 147.201 128.709C148.211 128.929 149.521 129.089 151.151 129.189C152.401 129.259 153.391 129.339 154.121 129.429C154.851 129.519 155.391 129.619 155.741 129.729C156.091 129.839 156.311 129.959 156.421 130.109C156.531 130.249 156.591 130.409 156.591 130.579V130.649C156.591 130.859 156.551 131.029 156.481 131.169C156.411 131.309 156.241 131.409 155.991 131.489C155.731 131.559 155.341 131.619 154.801 131.649C154.261 131.689 153.541 131.709 152.631 131.709C151.651 131.709 150.871 131.699 150.281 131.669C149.701 131.639 149.271 131.579 148.991 131.489C148.711 131.399 148.531 131.279 148.441 131.139C148.351 130.989 148.311 130.799 148.311 130.569V130.149L143.381 130.239V130.279C143.381 131.129 143.451 131.859 143.591 132.469C143.731 133.079 143.991 133.589 144.371 133.989C144.751 134.389 145.291 134.709 145.991 134.939C146.691 135.169 147.591 135.329 148.691 135.419C149.791 135.509 151.131 135.559 152.721 135.559C154.221 135.559 155.481 135.489 156.511 135.349C157.541 135.209 158.381 135.009 159.031 134.739C159.681 134.479 160.191 134.139 160.541 133.729C160.891 133.319 161.141 132.839 161.281 132.279C161.421 131.719 161.491 131.089 161.491 130.389C161.491 129.609 161.391 128.919 161.191 128.309C160.991 127.699 160.621 127.199 160.091 126.799L160.081 126.789Z" fill="#E5E2D6"></path><path d="M175.891 131.32H168.261V129.14H174.461C174.951 129.14 175.511 129.14 176.141 129.14C176.771 129.14 177.491 129.15 178.301 129.15V125.47H168.261V123.51H174.671C175.541 123.51 176.361 123.51 177.151 123.52C177.931 123.52 178.651 123.52 179.301 123.52V119.58H163.361C163.371 119.98 163.381 120.39 163.381 120.81V134.21C163.381 134.56 163.381 134.89 163.361 135.21H179.591V131.27C179.051 131.27 178.461 131.27 177.841 131.28C177.221 131.28 176.571 131.28 175.901 131.28L175.891 131.32Z" fill="#E5E2D6"></path><path d="M192.89 155.23H7.72C3.46 155.23 0 151.77 0 147.51V7.72C0 3.46 3.46 0 7.72 0H192.88C197.14 0 200.6 3.46 200.6 7.72V147.5C200.6 151.76 197.14 155.22 192.88 155.22L192.89 155.23ZM7.72 5.17C6.31 5.17 5.16 6.32 5.16 7.73V147.51C5.16 148.92 6.31 150.07 7.72 150.07H192.88C194.29 150.07 195.44 148.92 195.44 147.51V7.72C195.44 6.31 194.29 5.16 192.88 5.16H7.72V5.17Z" fill="#E5E2D6">
                        </path></g></svg>