<svg width="595" height="595" viewBox="0 0 595 595" fill="none" xmlns="http://www.w3.org/2000/svg">
<g clip-path="url(#clip0_189_329)">
<path d="M297.21 594.42C217.82 594.42 143.19 563.5 87.05 507.37C30.91 451.24 0 376.6 0 297.21C0 217.82 30.92 143.19 87.05 87.05C143.18 30.91 217.82 0 297.21 0C376.6 0 451.23 30.92 507.37 87.05C563.51 143.18 594.42 217.82 594.42 297.21C594.42 376.6 563.5 451.23 507.37 507.37C451.24 563.51 376.6 594.42 297.21 594.42Z" fill="#2A2F33"/>
<path d="M297.211 521.7C237.251 521.7 180.871 498.35 138.471 455.95C96.0707 413.55 72.7207 357.17 72.7207 297.21C72.7207 237.25 96.0707 180.87 138.471 138.47C180.871 96.0697 237.251 72.7197 297.211 72.7197C357.171 72.7197 413.551 96.0697 455.951 138.47C498.351 180.87 521.701 237.25 521.701 297.21C521.701 357.17 498.351 413.55 455.951 455.95C413.551 498.35 357.171 521.7 297.211 521.7Z" fill="#4F52BE"/>
<path d="M43.4705 294.9L45.3605 281.41L46.4305 281.58C48.4605 281.9 49.0905 281.19 50.8305 270.1C52.4805 259.57 52.0605 258.93 50.2605 258.65L49.9805 258.61C48.3505 258.35 47.3905 259.3 44.5205 273.21C40.7905 291.09 37.3205 293.71 28.4305 292.32C20.1005 291.01 16.2205 286.65 19.4105 266.33C22.9405 243.87 27.5605 242.69 36.6305 244.11L34.7405 257.6L33.7805 257.45C32.0305 257.18 31.1205 258.24 29.6105 267.82C28.1305 277.28 28.4505 278.54 29.9105 278.77C31.4905 279.02 32.1005 278.07 35.0205 264.23C38.8405 246.14 43.4105 243.85 51.5205 245.13C60.5305 246.54 64.4605 250.56 61.1805 271.45C57.7005 293.63 54.4605 296.64 43.4805 294.92L43.4705 294.9Z" fill="#E5E2D6"/>
<path d="M44.1598 220.27L42.7898 223.9C41.9898 226.03 38.7198 234.67 37.5698 237.89L26.2598 233.62L44.3298 185.73L55.6398 190C54.3798 193.18 52.9298 197.02 52.1298 199.15L48.9498 207.58L67.0298 214.4C70.5498 215.73 73.1598 216.71 75.5798 217.57L70.7498 230.37C68.4198 229.43 65.8098 228.45 62.2398 227.1L44.1598 220.28V220.27Z" fill="#E5E2D6"/>
<path d="M80.7514 137.78L84.3514 139.97C86.6914 141.39 90.3214 143.53 94.1714 145.87C106.591 153.42 107.881 159.21 96.6514 177.67C85.4514 196.08 79.7514 197.68 67.2814 190.1C63.3814 187.73 59.8114 185.49 57.4714 184.07L53.9614 181.94C51.5714 180.49 49.5814 179.27 47.9414 178.35L55.0514 166.66C56.5314 167.63 58.5814 168.87 60.9114 170.29L73.7714 178.11C79.2714 181.46 81.0914 180.56 86.5714 171.55C92.0514 162.54 92.0114 160.52 86.5114 157.17L73.6514 149.35C71.2614 147.9 69.2214 146.66 67.7314 145.82L74.8414 134.13C76.4214 135.16 78.3714 136.34 80.7514 137.79V137.78Z" fill="#E5E2D6"/>
<path d="M86.9008 129.41C84.8908 127.55 83.3008 126.08 81.8008 124.76L100.011 105.11C114.621 89.3502 121.621 89.0002 132.201 98.8002L133.541 100.04C144.121 109.84 144.301 116.85 129.701 132.62L111.491 152.27C109.691 150.52 107.771 148.74 105.051 146.22L86.9108 129.41H86.9008ZM99.6308 122.71L112.171 134.33L121.121 124.67C128.671 116.52 128.431 114.35 123.451 109.74L123.281 109.58C118.351 105.01 116.121 104.89 108.571 113.04L99.6208 122.7L99.6308 122.71Z" fill="#E5E2D6"/>
<path d="M130.021 85.8202C128.311 83.6902 127.021 82.0902 125.691 80.5202L136.361 71.9502C137.641 73.6302 138.811 75.1002 140.601 77.3202L155.951 96.4302C158.311 99.3602 160.051 101.54 161.701 103.51L151.031 112.08C149.501 110.09 147.761 107.91 145.361 104.93L130.011 85.8202H130.021Z" fill="#E5E2D6"/>
<path d="M153.74 83.6608L152.84 82.0808C145.29 68.8608 147.27 62.0908 166.38 51.1808C185.54 40.2408 192.32 42.0108 199.87 55.2308L200.77 56.8108C208.29 69.9808 206.39 76.7708 187.23 87.7108C168.12 98.6208 161.26 96.8308 153.74 83.6608ZM188.24 63.0408L188.13 62.8408C184.43 56.3608 182.45 55.6508 172.25 61.4708C162.1 67.2608 161.66 69.3608 165.36 75.8408L165.47 76.0408C169.17 82.5208 171.23 83.2508 181.38 77.4608C191.58 71.6408 191.95 69.5308 188.24 63.0408Z" fill="#E5E2D6"/>
<path d="M261.13 19.6807C266.61 28.0907 280.62 49.4707 285.39 56.5007L270.74 59.0807L267.8 54.2207L244.84 58.2707L243.8 63.8407L229.6 66.3407C231.68 58.1007 237.65 33.2007 239.92 23.4207L261.14 19.6807H261.13ZM246.93 47.1307L261.92 44.4907C259.62 40.6107 257.17 36.5907 254.94 32.8107L249.38 33.7907C248.67 37.9707 247.78 42.4607 246.99 46.8307L246.93 47.1307Z" fill="#E5E2D6"/>
<path d="M286.01 57.2904C286.17 54.7904 286.29 52.1103 286.45 48.3503L287.49 23.7504C287.61 20.9604 287.7 18.9104 287.72 16.8604L301.39 17.4404C301.25 19.4904 301.16 21.5404 301.04 24.2704L300.13 45.8503L310.27 46.2803C317.62 46.5903 326.33 46.9603 330.89 47.1003L330.38 59.1703L286.02 57.2904H286.01Z" fill="#E5E2D6"/>
<path d="M346.23 62.7301L332.98 59.3101C333.66 56.9001 334.32 54.3601 335.26 50.7101L340.21 31.5601C341.55 26.3701 342.39 23.1201 343.11 20.1201L373.63 28.0101C389.14 32.0201 392.38 36.8001 389.48 48.0101L389.44 48.1801C386.56 59.3301 381.36 62.1101 365.86 58.1001C362.66 57.2701 354.88 55.2601 348.53 53.6201L348.33 54.3901C347.43 57.8701 346.8 60.3001 346.23 62.7401V62.7301ZM353.51 34.3501L351.34 42.7401L368.45 47.1601C373.42 48.4401 375.33 47.6401 376.1 44.6601L376.13 44.5501C376.9 41.5701 375.59 40.0501 370.62 38.7701L353.51 34.3501Z" fill="#E5E2D6"/>
<path d="M389.421 65.0808L400.811 43.3808C402.081 40.9608 403.041 39.1408 403.941 37.3008L416.051 43.6608C415.021 45.5008 414.141 47.1708 412.821 49.6908L409.561 55.9008L431.661 67.5008L434.921 61.2908C436.191 58.8708 437.151 57.0508 438.051 55.2108L450.161 61.5708C449.131 63.4108 448.251 65.0808 446.931 67.6008L435.541 89.3008C433.791 92.6308 432.491 95.1008 431.351 97.4008L419.241 91.0408C420.461 88.8508 421.751 86.3708 423.531 82.9908L426.261 77.7908L404.161 66.1908L401.431 71.3908C399.681 74.7208 398.381 77.1908 397.241 79.4908L385.131 73.1308C386.351 70.9408 387.641 68.4608 389.421 65.0808Z" fill="#E5E2D6"/>
<path d="M446.151 84.1303L447.351 82.7503C457.321 71.2603 464.371 70.8803 480.981 85.3003C497.641 99.7603 498.211 106.74 488.241 118.24L487.041 119.62C477.101 131.07 470.071 131.53 453.411 117.07C436.791 102.65 436.211 95.5803 446.151 84.1303ZM477.021 109.86L477.171 109.69C482.061 104.05 482.081 101.95 473.211 94.2503C464.391 86.5903 462.261 86.8603 457.371 92.5003L457.221 92.6703C452.331 98.3103 452.321 100.49 461.141 108.15C470.011 115.85 472.121 115.49 477.021 109.85V109.86Z" fill="#E5E2D6"/>
<path d="M483.13 131.11L503.05 116.73C505.41 115.03 507.16 113.76 508.84 112.48L521.49 130L514.23 146.92C512 152.11 509.84 156.91 508.18 160.64L508.61 161.24C512.38 158.38 519.61 153.01 521.83 151.41C525.07 149.07 528.12 146.87 531.73 144.19L539.4 154.82C537.66 156.01 535.9 157.28 533.54 158.98L514.27 172.9C510.8 175.4 508.82 176.84 506.58 178.52L493.97 161.05L500.84 145.05C503.14 139.66 505.28 134.74 507.25 130.37L506.85 129.82C501.75 133.57 495.39 138.3 493.59 139.6C490.35 141.94 487.35 144.1 483.69 146.82L476.02 136.19C478.09 134.77 480.17 133.27 483.12 131.13L483.13 131.11Z" fill="#E5E2D6"/>
<path d="M519.451 175.07L525.001 187.51L524.001 187.93C522.111 188.73 521.951 189.67 526.361 200C530.541 209.8 531.241 210.13 532.911 209.41L533.171 209.3C534.691 208.65 535.001 207.34 530.061 194.02C523.751 176.89 525.291 172.82 533.581 169.28C541.341 165.97 546.931 167.61 555.001 186.54C563.921 207.46 560.621 210.91 552.181 214.51L546.631 202.07L547.521 201.69C549.141 201 549.361 199.61 545.561 190.69C541.801 181.88 540.861 180.98 539.501 181.56C538.031 182.19 538.021 183.31 542.881 196.6C549.231 213.97 546.571 218.33 539.021 221.54C530.631 225.12 525.171 223.79 516.881 204.34C508.071 183.68 509.231 179.41 519.451 175.05V175.07Z" fill="#E5E2D6"/>
<path d="M560.561 222.231C563.241 221.701 565.311 221.291 567.261 220.851L576.021 265.131L565.451 267.221C564.071 259.941 561.911 249.041 560.361 241.211L559.391 236.291L555.251 237.111L560.861 265.461L550.961 267.421C548.251 253.431 548.041 252.371 546.821 246.221L545.401 239.061L540.701 239.991L541.781 245.471C543.331 253.301 545.321 263.361 547.001 271.571L536.431 273.661L527.541 228.711C529.961 228.291 532.751 227.741 536.501 227.001L560.541 222.241L560.561 222.231Z" fill="#E5E2D6"/>
<path d="M550.74 297.04L549.63 310.62L548.55 310.51C546.51 310.31 545.92 311.05 544.82 322.23C543.78 332.84 544.23 333.46 546.05 333.64L546.33 333.67C547.98 333.83 548.88 332.83 550.95 318.77C553.65 300.7 556.96 297.88 565.92 298.76C574.32 299.59 578.43 303.72 576.42 324.2C574.19 346.84 569.64 348.28 560.5 347.38L561.61 333.8L562.57 333.89C564.33 334.06 565.18 332.94 566.13 323.3C567.07 313.77 566.67 312.53 565.2 312.38C563.61 312.22 563.06 313.2 560.93 327.2C558.16 345.49 553.72 348.03 545.55 347.22C536.47 346.33 532.32 342.54 534.39 321.49C536.59 299.14 539.65 295.95 550.72 297.03L550.74 297.04Z" fill="#E5E2D6"/>
<path d="M554.47 371.68L555.64 367.98C556.33 365.81 559.12 357 560.1 353.73L571.62 357.38L556.16 406.17L544.64 402.52C545.73 399.28 546.97 395.36 547.65 393.19L550.37 384.6L531.95 378.77C528.36 377.63 525.7 376.79 523.24 376.07L527.37 363.03C529.74 363.84 532.41 364.69 536.05 365.84L554.47 371.67V371.68Z" fill="#E5E2D6"/>
<path d="M520.54 455.93L516.89 453.82C514.52 452.45 510.84 450.39 506.94 448.13C494.36 440.85 492.94 435.1 503.76 416.4C514.55 397.75 520.22 396.02 532.85 403.33C536.8 405.61 540.42 407.77 542.79 409.14L546.34 411.19C548.76 412.59 550.78 413.76 552.44 414.65L545.59 426.49C544.09 425.56 542.02 424.36 539.65 422.99L526.62 415.46C521.04 412.24 519.25 413.17 513.97 422.3C508.69 431.43 508.77 433.45 514.35 436.68L527.38 444.21C529.8 445.61 531.87 446.81 533.38 447.61L526.53 459.45C524.93 458.46 522.96 457.32 520.54 455.92V455.93Z" fill="#E5E2D6"/>
<path d="M513.951 464.901C515.951 466.771 517.521 468.251 519.021 469.581L500.691 489.121C485.991 504.791 478.981 505.091 468.461 495.231L467.131 493.981C456.611 484.111 456.471 477.101 471.171 461.431L489.501 441.891C491.291 443.651 493.201 445.441 495.901 447.981L513.941 464.911L513.951 464.901ZM501.181 471.521L488.711 459.821L479.701 469.421C472.091 477.531 472.321 479.701 477.271 484.341L477.441 484.501C482.351 489.101 484.571 489.231 492.171 481.131L501.181 471.531V471.521Z" fill="#E5E2D6"/>
<path d="M470.35 508.21C472.03 510.37 473.3 511.98 474.6 513.57L463.82 521.99C462.57 520.29 461.41 518.81 459.65 516.56L444.57 497.24C442.25 494.28 440.53 492.07 438.91 490.09L449.69 481.67C451.19 483.68 452.91 485.88 455.26 488.89L470.34 508.21H470.35Z" fill="#E5E2D6"/>
<path d="M446.59 509.99L447.48 511.58C454.89 524.87 452.85 531.63 433.63 542.34C414.36 553.08 407.59 551.24 400.18 537.95L399.29 536.36C391.91 523.12 393.87 516.34 413.14 505.6C432.36 494.89 439.2 496.75 446.59 509.99ZM411.88 530.25L411.99 530.45C415.63 536.97 417.6 537.7 427.86 531.98C438.07 526.29 438.53 524.2 434.9 517.68L434.79 517.48C431.15 510.96 429.1 510.21 418.9 515.9C408.64 521.62 408.25 523.73 411.89 530.25H411.88Z" fill="#E5E2D6"/>
<path d="M339.64 573.91C334.04 565.58 319.7 544.43 314.82 537.47L329.43 534.66L332.44 539.48L355.33 535.08L356.29 529.5L370.45 526.78C368.5 535.05 362.91 560.03 360.79 569.84L339.63 573.91H339.64ZM353.42 546.25L338.48 549.12C340.84 552.96 343.35 556.95 345.64 560.69L351.18 559.63C351.83 555.44 352.64 550.93 353.37 546.56L353.43 546.26L353.42 546.25Z" fill="#E5E2D6"/>
<path d="M314.181 536.81C314.071 539.32 314.021 542 313.951 545.76L313.471 570.38C313.421 573.17 313.381 575.22 313.391 577.28L299.711 577.01C299.811 574.96 299.851 572.91 299.901 570.17L300.321 548.57L290.181 548.37C282.831 548.23 274.111 548.06 269.551 548.02L269.791 535.94L314.191 536.81H314.181Z" fill="#E5E2D6"/>
<path d="M253.971 532.591L267.241 535.911C266.581 538.331 265.941 540.871 265.031 544.521L260.231 563.711C258.931 568.911 258.111 572.171 257.421 575.171L226.841 567.531C211.301 563.651 208.031 558.891 210.831 547.661L210.871 547.491C213.661 536.321 218.831 533.501 234.371 537.381L251.731 541.721L251.921 540.951C252.791 537.471 253.401 535.031 253.951 532.591H253.971ZM246.921 561.031L249.021 552.621L231.881 548.331C226.901 547.091 225.001 547.901 224.251 550.891L224.221 551.001C223.471 553.991 224.801 555.491 229.781 556.741L246.921 561.031Z" fill="#E5E2D6"/>
<path d="M210.78 530.511L199.23 552.131C197.94 554.541 196.97 556.351 196.06 558.191L183.99 551.741C185.03 549.911 185.92 548.251 187.26 545.731L190.56 539.551L168.54 527.791L165.24 533.971C163.95 536.381 162.98 538.191 162.07 540.031L150 533.581C151.04 531.751 151.93 530.091 153.27 527.571L164.82 505.951C166.59 502.631 167.91 500.171 169.07 497.881L181.14 504.331C179.91 506.521 178.59 508.981 176.79 512.351L174.02 517.531L196.04 529.291L198.81 524.111C200.58 520.791 201.9 518.331 203.06 516.041L215.13 522.491C213.9 524.681 212.58 527.141 210.78 530.511Z" fill="#E5E2D6"/>
<path d="M154.24 510.96L153.04 512.33C143 523.77 135.96 524.1 119.42 509.59C102.84 495.04 102.31 488.05 112.35 476.61L113.55 475.24C123.55 463.85 130.59 463.43 147.17 477.98C163.7 492.49 164.24 499.57 154.24 510.96ZM123.52 485.05L123.37 485.22C118.45 490.83 118.42 492.93 127.24 500.68C136.02 508.39 138.14 508.13 143.07 502.52L143.22 502.35C148.14 496.74 148.16 494.56 139.38 486.85C130.56 479.1 128.44 479.44 123.51 485.06L123.52 485.05Z" fill="#E5E2D6"/>
<path d="M117.58 463.791L97.9099 478.511C95.5799 480.251 93.8499 481.551 92.1899 482.861L79.2499 465.561L86.2199 448.521C88.3599 443.291 90.4399 438.461 92.0399 434.701L91.5999 434.111C87.8799 437.041 80.7399 442.521 78.5499 444.161C75.3499 446.551 72.3399 448.801 68.7699 451.551L60.9199 441.051C62.6399 439.831 64.3799 438.531 66.6999 436.791L85.7299 422.551C89.1499 419.991 91.1099 418.521 93.3199 416.801L106.23 434.051L99.6299 450.161C97.4199 455.581 95.3699 460.541 93.4699 464.951L93.8799 465.501C98.9099 461.661 105.19 456.831 106.97 455.491C110.16 453.101 113.13 450.881 116.75 448.101L124.6 458.601C122.56 460.061 120.5 461.591 117.58 463.781V463.791Z" fill="#E5E2D6"/>
<path d="M80.5002 420.641L74.3702 408.471L75.3402 408.001C77.1902 407.111 77.3002 406.171 72.4102 396.061C67.7702 386.461 67.0602 386.171 65.4202 386.971L65.1602 387.091C63.6702 387.811 63.4202 389.131 68.9902 402.211C76.1102 419.031 74.7502 423.171 66.6502 427.091C59.0602 430.761 53.3902 429.391 44.4302 410.861C34.5302 390.391 37.6602 386.781 45.9302 382.791L52.0602 394.961L51.1902 395.381C49.6002 396.151 49.4502 397.551 53.6702 406.271C57.8402 414.891 58.8202 415.751 60.1602 415.101C61.6002 414.411 61.5602 413.281 56.0702 400.231C48.9002 383.181 51.3602 378.701 58.7502 375.131C66.9602 371.161 72.4802 372.231 81.6802 391.271C91.4602 411.491 90.5102 415.811 80.5002 420.651V420.641Z" fill="#E5E2D6"/>
<path d="M37.0709 375.73C34.4209 376.41 32.3809 376.94 30.4609 377.49L19.2109 333.77L29.6409 331.08C31.4309 338.27 34.2009 349.04 36.1909 356.77L37.4409 361.63L41.5309 360.58L34.3309 332.59L44.1009 330.08C47.6009 343.9 47.8709 344.95 49.4309 351.02L51.2509 358.09L55.8909 356.9L54.5009 351.49C52.5109 343.76 49.9509 333.82 47.8109 325.72L58.2409 323.04L69.6609 367.43C67.2709 367.99 64.5109 368.7 60.8109 369.65L37.0709 375.76V375.73Z" fill="#E5E2D6"/>
<path d="M297.21 594.42C217.82 594.42 143.19 563.5 87.05 507.37C30.91 451.24 0 376.6 0 297.21C0 217.82 30.92 143.19 87.05 87.05C143.18 30.91 217.82 0 297.21 0C376.6 0 451.23 30.92 507.37 87.05C563.51 143.18 594.42 217.82 594.42 297.21C594.42 376.6 563.5 451.23 507.37 507.37C451.24 563.51 376.6 594.42 297.21 594.42ZM297.21 4C218.89 4 145.26 34.5 89.88 89.88C34.5 145.26 4 218.89 4 297.21C4 375.53 34.5 449.16 89.88 504.54C145.26 559.92 218.89 590.42 297.21 590.42C375.53 590.42 449.16 559.92 504.54 504.54C559.92 449.16 590.42 375.53 590.42 297.21C590.42 218.89 559.92 145.26 504.54 89.88C449.16 34.5 375.53 4 297.21 4Z" fill="#4F52BE"/>
</g>
<defs>
<clipPath id="clip0_189_329">
<rect width="594.42" height="594.42" fill="white"/>
</clipPath>
</defs>
</svg>
